<?xml version="1.0" encoding="utf-8"?>
<!-- Generator: Adobe Illustrator 25.2.0, SVG Export Plug-In . SVG Version: 6.00 Build 0)  -->
<svg version="1.1" id="Layer_1" xmlns="http://www.w3.org/2000/svg" xmlns:xlink="http://www.w3.org/1999/xlink" x="0px" y="0px"
	 viewBox="0 0 2000 1208" style="enable-background:new 0 0 2000 1208;" xml:space="preserve">
<style type="text/css">
	.st0{fill:#7EA5C3;}
	.st1{fill:#3396FB;}
</style>
<g>
	<path class="st0" d="M900.38,672.27l225.73-225.73l-27.56-27.56L872.82,644.71c-32.27,32.27-84.6,32.27-116.87,0l27.56,27.56
		C815.78,704.54,868.11,704.54,900.38,672.27z"/>
	<path class="st0" d="M955.5,727.39l225.73-225.73l-27.56-27.56L927.94,699.83c-32.27,32.27-84.6,32.27-116.87,0l27.56,27.56
		C870.9,759.66,923.23,759.66,955.5,727.39z"/>
	<path class="st0" d="M1010.62,782.51l225.73-225.73l-27.56-27.56L983.06,754.95c-32.27,32.27-84.6,32.27-116.87,0l27.56,27.56
		C926.02,814.78,978.34,814.78,1010.62,782.51z"/>
	<path class="st0" d="M1065.73,837.62l225.73-225.73l-27.56-27.56l-225.73,225.73c-32.27,32.27-84.6,32.27-116.87,0l27.56,27.56
		C981.14,869.9,1033.46,869.9,1065.73,837.62z"/>
	<path class="st1" d="M1035.16,472.46l-167.3,167.29c-14.28,14.28-33.27,22.15-53.46,22.15c-0.01,0-0.01,0-0.01,0
		c-20.2,0-39.18-7.87-53.46-22.15l-9.05-8.63c-32.28-32.28-28.19-71,4.09-103.27L895.7,388.1c15.22-15.22,39.89-15.22,55.11,0
		L1035.16,472.46z"/>
</g>
</svg>
